<svg xmlns="http://www.w3.org/2000/svg" width="107" height="32" viewBox="0 0 107 32"><path fill="#FFF" d="M0 31.56h5.124V6.887H0v24.67zM36.096 14.57c-2.495 0-4.168 1.364-4.85 2.66h-.07V14.98H26.26v16.58h5.125v-8.254c0-2.15.41-4.232 3.073-4.232 2.63 0 2.667 2.458 2.667 4.368v8.12h5.123V22.42c-.002-4.436-.96-7.848-6.15-7.848M65.1 25.488c-1.742 0-3.145 1.398-3.145 3.138s1.402 3.138 3.144 3.138c1.743 0 3.142-1.398 3.142-3.138s-1.4-3.138-3.143-3.138M52.686 14.533a8.717 8.717 0 0 0-8.745 8.733 8.716 8.716 0 0 0 8.745 8.732 8.712 8.712 0 0 0 8.742-8.732 8.713 8.713 0 0 0-8.743-8.733m0 12.7c-2.14 0-3.86-1.77-3.86-3.967s1.722-3.964 3.86-3.964 3.857 1.767 3.857 3.964-1.72 3.967-3.857 3.967M17.667 14.98h-5.823l-6.316 7.442h.062l6.254 9.137h5.98l-6.294-9.48 6.136-7.1zM88.48 31.56h5.125V6.887H88.48v24.67zm11.533-9.108l6.137-7.472h-6.197l-5.946 7.442h.064l6.256 9.137h5.98l-6.293-9.108zm-18.88-7.14a8.733 8.733 0 0 0-3.62-.78 8.718 8.718 0 0 0-8.745 8.735c0 4.84 3.9 8.732 8.745 8.732a8.714 8.714 0 0 0 8.744-8.733c0-.04-.003-.078-.003-.117h.003V6.926h-5.124v8.385zm-3.62 11.92c-2.138 0-3.86-1.77-3.86-3.966s1.723-3.964 3.86-3.964c2.14 0 3.858 1.767 3.858 3.964s-1.72 3.967-3.857 3.967"/><path fill="#E20613" d="M21.37 0l1.602 4.933h5.185L23.962 7.98l1.602 4.932-4.195-3.048-4.196 3.048 1.603-4.933-4.196-3.047h5.187z"/><path fill="#FFF" d="M18.808 14.98h5.124v16.58h-5.124z"/></svg>